<svg width="34" height="34" viewBox="0 0 34 34" fill="none" xmlns="http://www.w3.org/2000/svg">
<path d="M33.1891 14.4666L29.4668 13.3555C29.2095 12.457 28.8556 11.589 28.4113 10.7666L30.2335 7.35552C30.3019 7.22676 30.3269 7.07939 30.3049 6.93528C30.2829 6.79117 30.215 6.65799 30.1113 6.55552L27.4557 3.88886C27.3533 3.78515 27.2201 3.71726 27.076 3.69524C26.9319 3.67322 26.7845 3.69826 26.6557 3.76663L23.2668 5.57774C22.4364 5.11181 21.557 4.73917 20.6446 4.46663L19.5335 0.788856C19.4865 0.653318 19.3977 0.536188 19.2799 0.454324C19.1621 0.372461 19.0214 0.330086 18.8779 0.3333H15.1224C14.9781 0.333972 14.8378 0.380672 14.7219 0.466604C14.606 0.552535 14.5205 0.673215 14.4779 0.811078L13.3668 4.47774C12.4469 4.74883 11.5599 5.1215 10.7224 5.58886L7.38906 3.78886C7.2603 3.72048 7.11293 3.69544 6.96882 3.71746C6.8247 3.73948 6.69153 3.80738 6.58906 3.91108L3.88906 6.54441C3.78536 6.64688 3.71746 6.78005 3.69544 6.92417C3.67343 7.06828 3.69846 7.21565 3.76684 7.34441L5.56684 10.6777C5.10023 11.5117 4.72758 12.3949 4.45573 13.3111L0.777949 14.4222C0.640085 14.4648 0.519406 14.5502 0.433474 14.6661C0.347543 14.782 0.300843 14.9223 0.300171 15.0666V18.8222C0.300843 18.9665 0.347543 19.1068 0.433474 19.2227C0.519406 19.3386 0.640085 19.4241 0.777949 19.4666L4.47795 20.5777C4.75278 21.4787 5.12537 22.3468 5.58906 23.1666L3.76684 26.6555C3.69846 26.7843 3.67343 26.9317 3.69544 27.0758C3.71746 27.2199 3.78536 27.3531 3.88906 27.4555L6.54461 30.1111C6.64708 30.2148 6.78026 30.2827 6.92437 30.3047C7.06849 30.3267 7.21586 30.3017 7.34461 30.2333L10.7779 28.4C11.5901 28.8382 12.4469 29.1884 13.3335 29.4444L14.4446 33.1889C14.4872 33.3267 14.5726 33.4474 14.6886 33.5333C14.8045 33.6193 14.9448 33.666 15.0891 33.6666H18.8446C18.9889 33.666 19.1292 33.6193 19.2451 33.5333C19.361 33.4474 19.4465 33.3267 19.4891 33.1889L20.6002 29.4333C21.4792 29.1759 22.3285 28.8258 23.1335 28.3889L26.5891 30.2333C26.7178 30.3017 26.8652 30.3267 27.0093 30.3047C27.1534 30.2827 27.2866 30.2148 27.3891 30.1111L30.0446 27.4555C30.1483 27.3531 30.2162 27.2199 30.2382 27.0758C30.2602 26.9317 30.2352 26.7843 30.1668 26.6555L28.3224 23.2111C28.7639 22.403 29.1178 21.55 29.3779 20.6666L33.1224 19.5555C33.2603 19.5129 33.3809 19.4275 33.4669 19.3116C33.5528 19.1957 33.5995 19.0554 33.6002 18.9111V15.1222C33.6067 14.984 33.5709 14.8472 33.4974 14.73C33.4239 14.6128 33.3163 14.5209 33.1891 14.4666ZM17.0002 23.1111C15.7915 23.1111 14.61 22.7527 13.605 22.0812C12.6001 21.4097 11.8168 20.4552 11.3542 19.3386C10.8917 18.2219 10.7707 16.9932 11.0065 15.8077C11.2423 14.6223 11.8243 13.5334 12.679 12.6788C13.5336 11.8241 14.6225 11.2421 15.808 11.0063C16.9934 10.7705 18.2221 10.8915 19.3388 11.354C20.4555 11.8166 21.4099 12.5998 22.0814 13.6048C22.7529 14.6098 23.1113 15.7913 23.1113 17C23.1113 18.6207 22.4674 20.1751 21.3214 21.3212C20.1753 22.4672 18.6209 23.1111 17.0002 23.1111Z" fill="white"/>
</svg>
