<svg width="28" height="28" viewBox="0 0 28 28" fill="none" xmlns="http://www.w3.org/2000/svg">
<path fill-rule="evenodd" clip-rule="evenodd" d="M17.3438 0.317511C17.5902 0.232952 17.8569 0.227495 18.1065 0.3019C18.3562 0.376306 18.5764 0.526857 18.7363 0.732511L27.4863 11.9825C27.657 12.2019 27.7496 12.472 27.7496 12.75C27.7496 13.028 27.657 13.2981 27.4863 13.5175L18.7363 24.7675C18.5763 24.973 18.3562 25.1233 18.1066 25.1976C17.8571 25.2719 17.5905 25.2664 17.3443 25.1818C17.098 25.0973 16.8842 24.938 16.7329 24.7261C16.5815 24.5142 16.5001 24.2604 16.5 24V19.0125C9.77628 19.1525 6.54628 20.4288 4.92378 21.8163C3.38128 23.135 3.09878 24.6863 2.80503 26.3113L2.72878 26.73C2.67269 27.0296 2.50904 27.2985 2.26861 27.4859C2.02818 27.6733 1.72756 27.7664 1.42329 27.7476C1.11903 27.7289 0.832098 27.5996 0.616485 27.3841C0.400871 27.1686 0.271437 26.8818 0.252534 26.5775C0.0375341 23.1425 0.360034 18.165 2.78628 14.0013C5.14128 9.96001 9.38128 6.85251 16.5 6.52751V1.50001C16.5 1.23957 16.5812 0.985617 16.7325 0.773614C16.8838 0.561612 17.0975 0.402153 17.3438 0.317511Z" fill="white"/>
</svg>
