<svg width="34" height="34" viewBox="0 0 34 34" fill="none" xmlns="http://www.w3.org/2000/svg">
<path d="M3.66671 7H0.333374V30.3333C0.333374 32.1667 1.83337 33.6667 3.66671 33.6667H27V30.3333H3.66671V7ZM30.3334 0.333328H10.3334C8.50004 0.333328 7.00004 1.83333 7.00004 3.66666V23.6667C7.00004 25.5 8.50004 27 10.3334 27H30.3334C32.1667 27 33.6667 25.5 33.6667 23.6667V3.66666C33.6667 1.83333 32.1667 0.333328 30.3334 0.333328ZM28.6667 15.3333H12V12H28.6667V15.3333ZM22 22H12V18.6667H22V22ZM28.6667 8.66666H12V5.33333H28.6667V8.66666Z" fill="white"/>
</svg>
