<svg width="40" height="40" viewBox="0 0 40 40" fill="none" xmlns="http://www.w3.org/2000/svg">
<path d="M26.25 29.375V21.25H14.9219C14.5904 21.25 14.2724 21.1183 14.038 20.8839C13.8036 20.6495 13.6719 20.3315 13.6719 20C13.6719 19.6685 13.8036 19.3505 14.038 19.1161C14.2724 18.8817 14.5904 18.75 14.9219 18.75H26.25V10.625C26.2488 9.46506 25.7874 8.35298 24.9672 7.53278C24.147 6.71258 23.0349 6.25124 21.875 6.25H6.875C5.71506 6.25124 4.60298 6.71258 3.78278 7.53278C2.96258 8.35298 2.50124 9.46506 2.5 10.625V29.375C2.50124 30.5349 2.96258 31.647 3.78278 32.4672C4.60298 33.2874 5.71506 33.7488 6.875 33.75H21.875C23.0349 33.7488 24.147 33.2874 24.9672 32.4672C25.7874 31.647 26.2488 30.5349 26.25 29.375Z" fill="white"/>
<path d="M33.232 21.25L29.1164 25.3664C28.8919 25.6027 28.7686 25.9174 28.7727 26.2434C28.7769 26.5693 28.9082 26.8808 29.1387 27.1113C29.3692 27.3418 29.6807 27.4731 30.0066 27.4773C30.3326 27.4815 30.6473 27.3581 30.8836 27.1336L37.1336 20.8836C37.3678 20.6492 37.4994 20.3314 37.4994 20C37.4994 19.6686 37.3678 19.3508 37.1336 19.1164L30.8836 12.8664C30.6473 12.6419 30.3326 12.5186 30.0066 12.5227C29.6807 12.5269 29.3692 12.6583 29.1387 12.8888C28.9082 13.1193 28.7769 13.4307 28.7727 13.7566C28.7686 14.0826 28.8919 14.3973 29.1164 14.6336L33.232 18.75H26.25V21.25H33.232Z" fill="white"/>
</svg>
