<svg width="1440" height="131" viewBox="0 0 1440 131" fill="none" xmlns="http://www.w3.org/2000/svg">
<path d="M-29 129.557L-6.6 119.336C15.9778 109.114 61.6667 88.6715 106.111 68.2287C150.733 47.7859 195 27.343 241.222 30.7289C285.311 34.3703 330.111 61.2015 374.556 58.0073C420.067 54.8131 465.222 20.3158 509.667 6.90021C554.822 -6.51539 600.333 -0.127013 644.778 23.9572C689.578 47.7859 733.667 88.6715 779.889 92.0574C824.333 95.6987 868.778 61.2015 915 44.4C959.089 27.343 1003.89 27.343 1048.33 34.1786C1093.84 40.7586 1139 54.8131 1183.44 71.6145C1228.6 88.6715 1274.11 109.114 1318.56 95.5071C1363.36 81.6443 1407.44 34.3703 1453.67 30.7289C1497.93 27.343 1542.56 68.2287 1587 88.6715C1632.69 109.114 1677.67 109.114 1722.11 109.114C1767.44 109.114 1812.78 109.114 1857.22 105.728C1902.2 102.087 1947.89 95.6987 1992.33 88.6715C2036.96 81.6443 2081.22 75.2559 2127.44 68.2287C2171.71 61.2015 2216.33 54.8131 2260.78 44.4C2306.47 34.3703 2351.44 20.3158 2395.89 30.7289C2441.22 40.7586 2486.56 75.2559 2507.89 92.0574L2531 109.114V150H2508.6C2486.02 150 2440.33 150 2395.89 150C2351.27 150 2307 150 2260.78 150C2216.69 150 2171.89 150 2127.44 150C2081.93 150 2036.78 150 1992.33 150C1947.18 150 1901.67 150 1857.22 150C1812.42 150 1768.33 150 1722.11 150C1677.67 150 1633.22 150 1587 150C1542.91 150 1498.11 150 1453.67 150C1408.16 150 1363 150 1318.56 150C1273.4 150 1227.89 150 1183.44 150C1138.64 150 1094.56 150 1048.33 150C1004.07 150 959.444 150 915 150C869.311 150 824.333 150 779.889 150C734.556 150 689.222 150 644.778 150C599.8 150 554.111 150 509.667 150C465.044 150 420.778 150 374.556 150C330.289 150 285.667 150 241.222 150C195.533 150 150.556 150 106.111 150C60.7778 150 15.4444 150 -5.88889 150H-29V129.557Z" fill="#F15660"/>
</svg>
